<svg width="16" height="13" viewBox="0 0 16 13" fill="none" xmlns="http://www.w3.org/2000/svg">
<style>
  path { fill: black; }
  @media (prefers-color-scheme: dark) {
    path { fill: white; }
  }
</style>
<path d="M10.3244 4.85853C10.3244 5.52935 10.8682 6.07316 11.539 6.07316H14.1707C14.8415 6.07316 15.3853 6.61697 15.3853 7.28779V11.1341C15.3853 11.805 14.8415 12.3488 14.1707 12.3488H11.3366C10.6657 12.3488 10.1219 11.805 10.1219 11.1341V7.49023C10.1219 6.81941 9.57813 6.2756 8.9073 6.2756H6.47804C5.80721 6.2756 5.26341 6.81941 5.26341 7.49023V11.1341C5.26341 11.805 4.7196 12.3488 4.04877 12.3488H1.21463C0.543808 12.3488 0 11.805 0 11.1341V7.28779C0 6.61697 0.54381 6.07316 1.21463 6.07316H3.84634C4.51716 6.07316 5.06097 5.52935 5.06097 4.85853V1.21463C5.06097 0.543809 5.60478 0 6.2756 0H9.10974C9.78057 0 10.3244 0.543809 10.3244 1.21463V4.85853Z"/>
</svg>
