<svg width="75" height="13" viewBox="0 0 75 13" fill="none" xmlns="http://www.w3.org/2000/svg" aria-label="Adamo logo">
<path d="M10.3244 4.85853C10.3244 5.52935 10.8682 6.07316 11.539 6.07316H14.1707C14.8415 6.07316 15.3853 6.61697 15.3853 7.28779V11.1341C15.3853 11.805 14.8415 12.3488 14.1707 12.3488H11.3366C10.6657 12.3488 10.1219 11.805 10.1219 11.1341V7.49023C10.1219 6.81941 9.57813 6.2756 8.9073 6.2756H6.47804C5.80721 6.2756 5.26341 6.81941 5.26341 7.49023V11.1341C5.26341 11.805 4.7196 12.3488 4.04877 12.3488H1.21463C0.543808 12.3488 0 11.805 0 11.1341V7.28779C0 6.61697 0.54381 6.07316 1.21463 6.07316H3.84634C4.51716 6.07316 5.06097 5.52935 5.06097 4.85853V1.21463C5.06097 0.543809 5.60478 0 6.2756 0H9.10974C9.78057 0 10.3244 0.543809 10.3244 1.21463V4.85853Z" fill="white"/>
<path d="M28.2405 0L32.7745 12.2289H31.1388L29.9653 8.90126C29.9325 8.80807 29.8444 8.74575 29.7456 8.74575H25.1704C25.0717 8.74575 24.9836 8.808 24.9507 8.9011L23.7745 12.2289H22.1388L26.6812 0H28.2405ZM27.4609 1.84747C27.4507 1.84747 27.4416 1.85387 27.4383 1.86344L25.5797 7.12155C25.5261 7.27316 25.6386 7.43219 25.7994 7.43219H29.118C29.2787 7.43219 29.3912 7.27329 29.3377 7.12171L27.4835 1.86346C27.4801 1.85388 27.471 1.84747 27.4609 1.84747Z" fill="white"/>
<path transform="translate(0.75 0)" d="M36.5759 12.3983C35.8245 12.3983 35.1663 12.2119 34.6014 11.839C34.042 11.4605 33.607 10.9294 33.2963 10.2458C32.9855 9.5565 32.8302 8.74577 32.8302 7.81356V7.80509C32.8302 6.87854 32.9855 6.07345 33.2963 5.38983C33.6127 4.70622 34.0505 4.17797 34.6098 3.80509C35.1692 3.42656 35.816 3.23729 36.5505 3.23729C36.9686 3.23729 37.3556 3.30509 37.7115 3.44068C38.0731 3.57062 38.3951 3.75989 38.6776 4.00848C38.8457 4.15306 39.0079 4.31465 39.1497 4.49325C39.2251 4.58822 39.4064 4.53665 39.4064 4.41537V0H40.9149V12.2288H39.4064V11.2101C39.4064 11.0884 39.2243 11.0375 39.1499 11.1338C39.0097 11.3151 38.8504 11.4796 38.6861 11.6271C38.4093 11.8701 38.0929 12.0593 37.737 12.1949C37.3867 12.3305 36.9997 12.3983 36.5759 12.3983ZM36.881 11.0678C37.3725 11.0678 37.8076 10.935 38.1861 10.6695C38.5703 10.3983 38.8697 10.0198 39.0844 9.53391C39.3048 9.04238 39.4149 8.46893 39.4149 7.81356V7.80509C39.4149 7.15537 39.3048 6.58758 39.0844 6.1017C38.8641 5.61582 38.5646 5.24012 38.1861 4.97458C37.8076 4.70339 37.3725 4.5678 36.881 4.5678C36.3612 4.5678 35.9121 4.70057 35.5336 4.96611C35.1607 5.22599 34.8725 5.59887 34.6692 6.08475C34.4714 6.56498 34.3725 7.13842 34.3725 7.80509V7.81356C34.3725 8.48588 34.4714 9.0678 34.6692 9.55933C34.8725 10.0452 35.1607 10.4181 35.5336 10.678C35.9121 10.9379 36.3612 11.0678 36.881 11.0678Z" fill="white"/>
<path transform="translate(1.5 0)" d="M44.9619 12.398C44.3799 12.398 43.8686 12.2878 43.428 12.0675C42.9873 11.8471 42.6426 11.5364 42.3941 11.1352C42.1455 10.7341 42.0212 10.268 42.0212 9.73694V9.71999C42.0212 9.21152 42.1483 8.77367 42.4025 8.40643C42.6568 8.0392 43.0212 7.74824 43.4958 7.53355C43.976 7.31886 44.5551 7.19174 45.233 7.1522L48.5042 6.96575V8.1183L45.411 8.30474C44.8234 8.33864 44.3686 8.47988 44.0466 8.72847C43.7246 8.97706 43.5636 9.30474 43.5636 9.71152V9.72847C43.5636 10.1522 43.7217 10.4884 44.0381 10.7369C44.3545 10.9799 44.7782 11.1014 45.3093 11.1014C45.7669 11.1014 46.1794 11.0053 46.5466 10.8132C46.9138 10.6155 47.2048 10.3499 47.4195 10.0166C47.6398 9.67762 47.75 9.29909 47.75 8.88101V6.27931C47.75 5.74259 47.5833 5.32169 47.25 5.0166C46.9167 4.71152 46.4421 4.55897 45.8263 4.55897C45.2669 4.55897 44.815 4.68327 44.4703 4.93186C44.1257 5.17479 43.911 5.49118 43.8263 5.88101L43.8093 5.95728H42.3602L42.3686 5.86406C42.4138 5.37253 42.5777 4.92903 42.8602 4.53355C43.1483 4.13807 43.5438 3.82451 44.0466 3.59287C44.5551 3.35558 45.1568 3.23694 45.8517 3.23694C46.5466 3.23694 47.1483 3.35558 47.6568 3.59287C48.1653 3.83016 48.5579 4.16632 48.8347 4.60135C49.1172 5.03073 49.2585 5.5392 49.2585 6.12677V12.2285H47.75V11.2677C47.75 11.1461 47.5651 11.0932 47.4884 11.1876C47.3542 11.3526 47.1999 11.5046 47.0381 11.6437C46.7556 11.881 46.4364 12.0675 46.0805 12.203C45.7302 12.333 45.3573 12.398 44.9619 12.398Z" fill="white"/>
<path transform="translate(2.25 0)" d="M50.6023 12.2285V3.40643H52.1108V4.15885C52.1108 4.28445 52.3162 4.33856 52.3946 4.24045C52.5806 4.0077 52.8135 3.80879 53.0769 3.64372C53.5063 3.37253 54.0034 3.23694 54.5684 3.23694C54.9695 3.23694 55.3311 3.30474 55.6532 3.44033C55.9808 3.57027 56.2633 3.76236 56.5006 4.0166C56.6767 4.20104 56.8403 4.41814 56.9638 4.6679C57.0106 4.76264 57.1585 4.76923 57.2111 4.67754C57.3539 4.42846 57.5266 4.21097 57.7294 4.02507C58.0063 3.77084 58.3227 3.57592 58.6786 3.44033C59.0402 3.30474 59.4272 3.23694 59.8396 3.23694C60.4215 3.23694 60.9272 3.35841 61.3566 3.60135C61.7916 3.83863 62.1277 4.17479 62.365 4.60982C62.6023 5.0392 62.721 5.5505 62.721 6.14372V12.2285H61.2125V6.49118C61.2125 6.0844 61.139 5.73694 60.9921 5.44881C60.8509 5.16067 60.6447 4.94315 60.3735 4.79626C60.108 4.64372 59.7803 4.56745 59.3905 4.56745C59.0063 4.56745 58.6645 4.65502 58.365 4.83016C58.0656 5.0053 57.8311 5.25106 57.6616 5.56745C57.4978 5.87818 57.4159 6.23129 57.4159 6.62677V12.2285H55.9074V6.33016C55.9074 5.97423 55.834 5.66632 55.6871 5.40643C55.5402 5.1409 55.3311 4.93468 55.0599 4.78779C54.7944 4.64089 54.4808 4.56745 54.1193 4.56745C53.7294 4.56745 53.3848 4.66067 53.0854 4.84711C52.7859 5.03355 52.5486 5.28779 52.3735 5.60982C52.1984 5.93186 52.1108 6.29626 52.1108 6.70304V12.2285H50.6023Z" fill="white"/>
<path transform="translate(3 0)" d="M67.7341 12.398C66.9205 12.398 66.2058 12.2115 65.59 11.8386C64.9742 11.4658 64.494 10.9375 64.1493 10.2539C63.8104 9.56463 63.6409 8.75107 63.6409 7.81321V7.79626C63.6409 6.85841 63.8104 6.0505 64.1493 5.37253C64.494 4.68892 64.9742 4.16349 65.59 3.79626C66.2058 3.42338 66.9177 3.23694 67.7256 3.23694C68.5448 3.23694 69.2623 3.42338 69.8782 3.79626C70.494 4.16349 70.9714 4.68892 71.3104 5.37253C71.655 6.0505 71.8273 6.85841 71.8273 7.79626V7.81321C71.8273 8.75672 71.655 9.57028 71.3104 10.2539C70.9714 10.9375 70.494 11.4658 69.8782 11.8386C69.268 12.2115 68.5533 12.398 67.7341 12.398ZM67.7426 11.0759C68.2623 11.0759 68.7115 10.9488 69.09 10.6946C69.4686 10.4347 69.7623 10.0618 69.9714 9.57593C70.1804 9.09005 70.2849 8.50248 70.2849 7.81321V7.79626C70.2849 7.11265 70.1804 6.53073 69.9714 6.0505C69.7623 5.56462 69.4657 5.19457 69.0816 4.94033C68.6974 4.68609 68.2454 4.55897 67.7256 4.55897C67.2228 4.55897 66.7793 4.68892 66.3951 4.9488C66.0109 5.20304 65.7115 5.57027 65.4968 6.0505C65.2878 6.53073 65.1832 7.11265 65.1832 7.79626V7.81321C65.1832 8.50248 65.2878 9.09005 65.4968 9.57593C65.7115 10.0618 66.0109 10.4347 66.3951 10.6946C66.7793 10.9488 67.2284 11.0759 67.7426 11.0759Z" fill="white"/>
</svg>
