<svg width="128" height="97" viewBox="0 0 128 97" fill="none" xmlns="http://www.w3.org/2000/svg">
<path d="M24 95.7386C24 96.4353 23.4353 97 22.7386 97H17.2614C16.5647 97 16 96.4353 16 95.7386V90.2614C16 89.5647 16.5647 89 17.2614 89H24V95.7386ZM12 87.7386C12 88.4353 11.4353 89 10.7386 89H5.26136C4.56473 89 4 88.4353 4 87.7386V82.2614C4 81.5647 4.56473 81 5.26136 81H12V87.7386ZM32 87.7386C32 88.4353 31.4353 89 30.7386 89H24V82.2614C24 81.5647 24.5647 81 25.2614 81H32V87.7386ZM20 79.7386C20 80.4353 19.4353 81 18.7386 81H12V74.2614C12 73.5647 12.5647 73 13.2614 73H20V79.7386ZM40 79.7386C40 80.4353 39.4353 81 38.7386 81H32V74.2614C32 73.5647 32.5647 73 33.2614 73H34.7386C35.4353 73 36 72.4353 36 71.7386V62.2614C36 61.5647 35.4353 61 34.7386 61H33.2614C32.5647 61 32 60.4353 32 59.7386V58.2614C32 57.5647 31.4353 57 30.7386 57H17.2614C16.5647 57 16 57.5647 16 58.2614V59.7386C16 60.4353 15.4353 61 14.7386 61H9.25C8.55964 61 8 60.4404 8 59.75C8 59.0596 7.44036 58.5 6.75 58.5H1.26136C0.564729 58.5 0 57.9353 0 57.2386V51.7614C0 51.0647 0.564729 50.5 1.26136 50.5H2.73864C3.43527 50.5 4 49.9353 4 49.2386V43.7614C4 43.0647 4.56473 42.5 5.26136 42.5H6.73864C7.43527 42.5 8 41.9353 8 41.2386V39.7614C8 39.0647 8.56473 38.5 9.26136 38.5H14.7386C15.4353 38.5 16 37.9353 16 37.2386V35.7614C16 35.0647 16.5647 34.5 17.2614 34.5H30.7386C31.4353 34.5 32 35.0647 32 35.7614V42.7386C32 43.4353 32.5647 44 33.2614 44H38.7386C39.4353 44 40 43.4353 40 42.7386V41.2614C40 40.5647 40.5647 40 41.2614 40H46.7386C47.4353 40 48 39.4353 48 38.7386V37.2614C48 36.5647 48.5647 36 49.2614 36H54.7386C55.4353 36 56 35.4353 56 34.7386V33.2614C56 32.5647 56.5647 32 57.2614 32H62.7386C63.4353 32 64 31.4353 64 30.7386V29.2614C64 28.5647 64.5647 28 65.2614 28H70.7386C71.4353 28 72 27.4353 72 26.7386V25.2614C72 24.5647 72.5647 24 73.2614 24H78.7386C79.4353 24 80 24.5647 80 25.2614V26.7386C80 27.4353 80.5647 28 81.2614 28H86.7386C87.4353 28 88 28.5647 88 29.2614V30.7386C88 31.4353 88.5647 32 89.2614 32H90.7386C91.4353 32 92 32.5647 92 33.2614V47.2386C92 47.9353 92.5647 48.5 93.2614 48.5H100V55.2386C100 55.9353 99.4353 56.5 98.7386 56.5H93.2614C92.5647 56.5 92 57.0647 92 57.7614V62.7386C92 63.4353 91.4353 64 90.7386 64H85.2614C84.5647 64 84 64.5647 84 65.2614V66.7386C84 67.4353 83.4353 68 82.7386 68H77.2614C76.5647 68 76 67.4353 76 66.7386V65.2614C76 64.5647 75.4353 64 74.7386 64H69.2614C68.5647 64 68 63.4353 68 62.7386V62.2614C68 61.5647 67.4353 61 66.7386 61H65.2614C64.5647 61 64 60.4353 64 59.7386V58.2614C64 57.5647 63.4353 57 62.7386 57H61.2614C60.5647 57 60 56.4353 60 55.7386V50.2614C60 49.5647 59.4353 49 58.7386 49H57.2614C56.5647 49 56 49.5647 56 50.2614V67.7386C56 68.4353 55.4353 69 54.7386 69H49.2614C48.5647 69 48 69.5647 48 70.2614V71.7386C48 72.4353 47.4353 73 46.7386 73H41.2614C40.5647 73 40 73.5647 40 74.2614V79.7386ZM28 71.7386C28 72.4353 27.4353 73 26.7386 73H20V66.2614C20 65.5647 20.5647 65 21.2614 65H26.7386C27.4353 65 28 65.5647 28 66.2614V71.7386ZM112 58.7386C112 59.4353 112.565 60 113.261 60H118.739C119.435 60 120 60.5647 120 61.2614V66.7386C120 67.4353 119.435 68 118.739 68H113.261C112.565 68 112 67.4353 112 66.7386V65.2614C112 64.5647 111.435 64 110.739 64H105.261C104.565 64 104 63.4353 104 62.7386V57.2614C104 56.5647 104.565 56 105.261 56H110.739C111.435 56 112 56.5647 112 57.2614V58.7386ZM116 43.2386C116 43.9353 116.565 44.5 117.261 44.5H118.739C119.435 44.5 120 45.0647 120 45.7614V47.2386C120 47.9353 120.565 48.5 121.261 48.5H126.739C127.435 48.5 128 49.0647 128 49.7614V55.2386C128 55.9353 127.435 56.5 126.739 56.5H121.261C120.565 56.5 120 55.9353 120 55.2386V53.7614C120 53.0647 119.435 52.5 118.739 52.5H113.261C112.565 52.5 112 51.9353 112 51.2386V45.7614C112 45.0647 111.435 44.5 110.739 44.5H109.261C108.565 44.5 108 45.0647 108 45.7614V47.2386C108 47.9353 107.435 48.5 106.739 48.5H100V41.7614C100 41.0647 100.565 40.5 101.261 40.5H106.739C107.435 40.5 108 39.9353 108 39.2386V37.7614C108 37.0647 108.565 36.5 109.261 36.5H114.739C115.435 36.5 116 37.0647 116 37.7614V43.2386ZM56 22.7386C56 23.4353 55.4353 24 54.7386 24H49.2614C48.5647 24 48 24.5647 48 25.2614V26.7386C48 27.4353 47.4353 28 46.7386 28H41.2614C40.5647 28 40 28.5647 40 29.2614V30.7386C40 31.4353 39.4353 32 38.7386 32H33.2614C32.5647 32 32 31.4353 32 30.7386V25.2614C32 24.5647 32.5647 24 33.2614 24H38.7386C39.4353 24 40 23.4353 40 22.7386V17.2614C40 16.5647 40.5647 16 41.2614 16H42.7386C43.4353 16 44 15.4353 44 14.7386V9.26136C44 8.56473 44.5647 8 45.2614 8H46.7386C47.4353 8 48 7.43527 48 6.73864V1.26136C48 0.564729 48.5647 0 49.2614 0H54.7386C55.4353 0 56 0.564729 56 1.26136V22.7386ZM33.5 10.7386C33.5 11.4353 32.9353 12 32.2386 12H30.7614C30.0647 12 29.5 12.5647 29.5 13.2614V18.7386C29.5 19.4353 28.9353 20 28.2386 20H26.7614C26.0647 20 25.5 20.5647 25.5 21.2614V26.7386C25.5 27.4353 24.9353 28 24.2386 28H18.7614C18.0647 28 17.5 27.4353 17.5 26.7386V21.2614C17.5 20.5647 18.0647 20 18.7614 20H20.2386C20.9353 20 21.5 19.4353 21.5 18.7386V13.2614C21.5 12.5647 22.0647 12 22.7614 12H24.2386C24.9353 12 25.5 11.4353 25.5 10.7386V5.26136C25.5 4.56473 26.0647 4 26.7614 4H32.2386C32.9353 4 33.5 4.56473 33.5 5.26136V10.7386ZM85 17.2386C85 17.9353 84.4353 18.5 83.7386 18.5H78.2614C77.5647 18.5 77 17.9353 77 17.2386V11.7614C77 11.0647 77.5647 10.5 78.2614 10.5H83.7386C84.4353 10.5 85 11.0647 85 11.7614V17.2386Z" fill="white"/>
</svg>
